<svg id="plus" width="11" height="11" viewBox="0 0 11 11" fill="none" xmlns="http://www.w3.org/2000/svg">
<path fill-rule="evenodd" clip-rule="evenodd" d="M5.49984 0C5.08562 0 4.74984 0.335786 4.74984 0.75V4.75H0.75C0.335786 4.75 0 5.08579 0 5.5C0 5.91421 0.335786 6.25 0.75 6.25H4.74984V10.25C4.74984 10.6642 5.08562 11 5.49984 11C5.91405 11 6.24984 10.6642 6.24984 10.25V6.25H10.25C10.6642 6.25 11 5.91421 11 5.5C11 5.08579 10.6642 4.75 10.25 4.75H6.24984V0.75C6.24984 0.335786 5.91405 0 5.49984 0Z" fill="white"/>
</svg>
